Coordinates
datacolumns 11
datarows 48
range 0 0.47
inDegrees=yes
Units are S.I. units (second, meters, Newtons, ...)
If the header above contains a line with 'inDegrees', this indicates whether rotational values are in degrees (yes) or radians (no).
endheader
time	pelvis_tilt	pelvis_tx	pelvis_ty	hip_flexion_l	hip_flexion_r	knee_angle_l	knee_angle_r	ankle_angle_l	ankle_angle_r	lumbar
0	16.50272234	-0.04571184	0.7321003	57.06390653	57.06390653	-79.43873673	-79.43873673	4.53892106	4.53892106	-30.76505615
0.01	16.49384105	-0.04565163	0.73211843	57.06520344	57.06520344	-79.43884194	-79.43884194	4.53821559	4.53821559	-30.77401125
0.02	16.48209075	-0.04570375	0.73212022	57.08364258	57.08364258	-79.43243044	-79.43243044	4.53476864	4.53476864	-30.81298749
0.03	16.46952375	-0.04565724	0.7321357	57.0868432	57.0868432	-79.4316164	-79.4316164	4.533905	4.533905	-30.82743724
0.04	16.45545032	-0.04569629	0.73214612	57.10396994	57.10396994	-79.42498451	-79.42498451	4.53259584	4.53259584	-30.86651708
0.05	16.43975875	-0.04572423	0.73213833	57.12055412	57.12055412	-79.41718659	-79.41718659	4.53002058	4.53002058	-30.90336688
0.06	16.42214793	-0.04573142	0.73214006	57.13561755	57.13561755	-79.4107483	-79.4107483	4.5279725	4.5279725	-30.9403602
0.07	16.40371665	-0.04575323	0.73214192	57.1528983	57.1528983	-79.40353489	-79.40353489	4.52585371	4.52585371	-30.98266686
0.08	16.38336173	-0.04577573	0.73214184	57.17211394	57.17211394	-79.39599192	-79.39599192	4.52403618	4.52403618	-31.03181539
0.09	16.36135793	-0.04580191	0.73214073	57.19320402	57.19320402	-79.38804202	-79.38804202	4.52257307	4.52257307	-31.08786762
0.1	16.33756868	-0.04583172	0.73213889	57.21621435	57.21621435	-79.37967454	-79.37967454	4.52153236	4.52153236	-31.15140728
0.11	16.31190092	-0.04586493	0.73213662	57.24115307	57.24115307	-79.37097061	-79.37097061	4.52101286	4.52101286	-31.22291316
0.12	16.28426787	-0.04590077	0.73213442	57.26797605	57.26797605	-79.36199827	-79.36199827	4.52112568	4.52112568	-31.30269302
0.13	16.25457084	-0.0459379	0.73213304	57.29660167	57.29660167	-79.35277417	-79.35277417	4.52197254	4.52197254	-31.39087143
0.14	16.22267578	-0.04597453	0.73213345	57.32693867	57.32693867	-79.34323274	-79.34323274	4.52363043	4.52363043	-31.48744378
0.15	16.18841657	-0.04600863	0.73213679	57.3589346	57.3589346	-79.33325476	-79.33325476	4.52613458	4.52613458	-31.59233533
0.16	16.15159259	-0.04603847	0.73214383	57.39262096	57.39262096	-79.32268708	-79.32268708	4.5294719	4.5294719	-31.70548327
0.17	16.11195576	-0.04606249	0.73215528	57.42809371	57.42809371	-79.31134462	-79.31134462	4.53358318	4.53358318	-31.82678658
0.18	16.069583	-0.04610045	0.7321689	57.46843514	57.46843514	-79.29799817	-79.29799817	4.5386306	4.5386306	-31.96225259
0.19	16.02358169	-0.04609279	0.73219317	57.50475089	57.50475089	-79.28548938	-79.28548938	4.54393158	4.54393158	-32.09407938
0.2	15.9729307	-0.04608822	0.73221664	57.54749393	57.54749393	-79.27101064	-79.27101064	4.54959427	4.54959427	-32.23911546
0.21	15.91791742	-0.04607177	0.7322441	57.59321438	57.59321438	-79.25518052	-79.25518052	4.55558062	4.55558062	-32.39191019
0.22	15.85805436	-0.04604015	0.7322748	57.64224269	57.64224269	-79.23803716	-79.23803716	4.56182062	4.56182062	-32.55265551
0.23	15.79299426	-0.045992	0.7323078	57.6949678	57.6949678	-79.219679	-79.219679	4.56827387	4.56827387	-32.72162836
0.24	15.72238733	-0.04592659	0.73234219	57.75183581	57.75183581	-79.20025105	-79.20025105	4.57492704	4.57492704	-32.89921875
0.25	15.6458489	-0.04584396	0.732377	57.81335845	57.81335845	-79.17990804	-79.17990804	4.5817931	4.5817931	-33.08588531
0.26	15.56296522	-0.04574469	0.73241134	57.88008441	57.88008441	-79.15879349	-79.15879349	4.58890607	4.58890607	-33.28207338
0.27	15.47328003	-0.04562944	0.73244438	57.95257945	57.95257945	-79.13703079	-79.13703079	4.59631719	4.59631719	-33.4881455
0.28	15.37629409	-0.04549808	0.73247544	58.03140628	58.03140628	-79.11473238	-79.11473238	4.60409237	4.60409237	-33.70437713
0.29	15.27147259	-0.04534875	0.73250418	58.11704627	58.11704627	-79.0920036	-79.0920036	4.6123102	4.6123102	-33.9308404
0.3	15.15826367	-0.04517819	0.73253052	58.20990534	58.20990534	-79.06890362	-79.06890362	4.62105475	4.62105475	-34.16746285
0.31	15.0360986	-0.04498314	0.73255414	58.31038963	58.31038963	-79.04540921	-79.04540921	4.63040208	4.63040208	-34.41416399
0.32	14.90436539	-0.04476113	0.73257443	58.41896546	58.41896546	-79.02138807	-79.02138807	4.64041236	4.64041236	-34.67091804
0.33	14.76177713	-0.04450869	0.73258967	58.53571063	58.53571063	-78.99661541	-78.99661541	4.65118064	4.65118064	-34.93625539
0.34	14.60893901	-0.04421059	0.7325979	58.66171959	58.66171959	-78.9709935	-78.9709935	4.6626044	4.6626044	-35.21308254
0.35	14.44545179	-0.04389363	0.73260531	58.79652233	58.79652233	-78.94454288	-78.94454288	4.67466792	4.67466792	-35.50024204
0.36	13.90183165	-0.04333981	0.7317062	59.39670739	59.39670739	-78.97507252	-78.97507252	4.75489932	4.75489932	-35.32702835
0.37	13.74303959	-0.0429751	0.73175365	59.52118909	59.52118909	-78.94999803	-78.94999803	4.76188265	4.76188265	-35.66857887
0.38	13.56746941	-0.04257641	0.7317999	59.65770694	59.65770694	-78.91933355	-78.91933355	4.77075541	4.77075541	-36.01542561
0.39	13.37157454	-0.04211735	0.73182671	59.81085416	59.81085416	-78.88423177	-78.88423177	4.78211707	4.78211707	-36.36290722
0.4	12.89608402	-0.04152192	0.73119946	60.30629421	60.30629421	-78.88898522	-78.88898522	4.82578978	4.82578978	-36.38265038
0.41	12.7006522	-0.04101147	0.73128321	60.45144781	60.45144781	-78.85692889	-78.85692889	4.83552272	4.83552272	-36.78186952
0.42	12.48707425	-0.04046774	0.73136764	60.60992882	60.60992882	-78.81882094	-78.81882094	4.84812863	4.84812863	-37.18639752
0.43	12.25384459	-0.03986825	0.73144456	60.78310986	60.78310986	-78.77627242	-78.77627242	4.86401785	4.86401785	-37.59352751
0.44	11.64700352	-0.0390764	0.73061131	61.41600372	61.41600372	-78.79364773	-78.79364773	4.96547161	4.96547161	-37.55192519
0.45	11.41419457	-0.03840703	0.73075141	61.57797187	61.57797187	-78.7494918	-78.7494918	4.9772989	4.9772989	-38.01402819
0.46	11.16077006	-0.03771798	0.73087752	61.75686753	61.75686753	-78.6988669	-78.6988669	4.99250205	4.99250205	-38.47903934
0.47	10.88177713	-0.03697964	0.73097235	61.95704006	61.95704006	-78.64192025	-78.64192025	5.01170136	5.01170136	-38.93965465
